HIERARCHY
ROOT Hips
{
    OFFSET 0.000000 0.000000 0.000000
    CHANNELS 6 Xposition Yposition Zposition Zrotation Xrotation Yrotation
    JOINT Spine
    {
        OFFSET -0.000000 14.517291 0.000000
        CHANNELS 3 Zrotation Xrotation Yrotation
        JOINT Spine1
        {
            OFFSET -0.000000 37.558300 0.000000
            CHANNELS 3 Zrotation Xrotation Yrotation
            JOINT Neck
            {
                OFFSET -0.000000 37.404057 3.400369
                CHANNELS 3 Zrotation Xrotation Yrotation
                JOINT Head
                {
                    OFFSET -0.000000 24.785618 -3.540803
                    CHANNELS 3 Zrotation Xrotation Yrotation
                    End Site
                    {
                        OFFSET -0.000000 35.408028 0.000000
                    }
                }
            }
            JOINT LeftShoulder
            {
                OFFSET 6.992933 33.973492 -0.192664
                CHANNELS 3 Zrotation Xrotation Yrotation
                JOINT LeftArm
                {
                    OFFSET 21.527611 0.000000 0.000000
                    CHANNELS 3 Zrotation Xrotation Yrotation
                    JOINT LeftForeArm
                    {
                        OFFSET 56.353916 0.000000 0.000000
                        CHANNELS 3 Zrotation Xrotation Yrotation
                        JOINT LeftHand
                        {
                            OFFSET 47.774071 0.000000 0.000000
                            CHANNELS 3 Zrotation Xrotation Yrotation
                            End Site
                            {
                                OFFSET 26.556021 0.000000 0.000000
                            }
                        }
                    }
                }
            }
            JOINT RightShoulder
            {
                OFFSET -7.065357 33.973492 -0.192664
                CHANNELS 3 Zrotation Xrotation Yrotation
                JOINT RightArm
                {
                    OFFSET -21.527611 0.000000 0.000000
                    CHANNELS 3 Zrotation Xrotation Yrotation
                    JOINT RightForeArm
                    {
                        OFFSET -56.353916 0.000000 0.000000
                        CHANNELS 3 Zrotation Xrotation Yrotation
                        JOINT RightHand
                        {
                            OFFSET -47.774071 0.000000 0.000000
                            CHANNELS 3 Zrotation Xrotation Yrotation
                            End Site
                            {
                                OFFSET -26.556021 0.000000 0.000000
                            }
                        }
                    }
                }
            }
        }
    }
    JOINT LeftUpLeg
    {
        OFFSET 17.704014 0.000000 0.000000
        CHANNELS 3 Zrotation Xrotation Yrotation
        JOINT LeftLeg
        {
            OFFSET -0.000000 -81.181816 0.000000
            CHANNELS 3 Zrotation Xrotation Yrotation
            JOINT LeftFoot
            {
                OFFSET -0.000000 -62.821102 0.000000
                CHANNELS 3 Zrotation Xrotation Yrotation
                JOINT LeftToeBase
                {
                    OFFSET -0.000000 -11.507608 26.556021
                    CHANNELS 3 Zrotation Xrotation Yrotation
                    End Site
                    {
                        OFFSET -0.000000 0.000000 7.081605
                    }
                }
            }
        }
    }
    JOINT RightUpLeg
    {
        OFFSET -17.704014 0.000000 0.000000
        CHANNELS 3 Zrotation Xrotation Yrotation
        JOINT RightLeg
        {
            OFFSET -0.000000 -81.181816 0.000000
            CHANNELS 3 Zrotation Xrotation Yrotation
            JOINT RightFoot
            {
                OFFSET -0.000000 -62.821102 0.000000
                CHANNELS 3 Zrotation Xrotation Yrotation
                JOINT RightToeBase
                {
                    OFFSET -0.000000 -11.507608 26.556021
                    CHANNELS 3 Zrotation Xrotation Yrotation
                    End Site
                    {
                        OFFSET -0.000000 0.000000 7.081605
                    }
                }
            }
        }
    }
}
MOTION
Frames:    10
Frame Time:    0.008333
2.484117    157.935211    -101.856949    0.987300    -3.158085    52.464920    -1.659381    -1.027155    -0.408093    -5.735513    3.687466    0.054442    10.517845    -2.579780    -8.399372    8.428952    4.528570    -9.694227    8.275154    5.600946    -21.222555    -27.668888    21.230192    -59.529911    -15.542406    1.132397    -93.737061    16.237085    -16.229395    -5.394444    -13.651157    -4.830023    -2.997802    25.535748    -22.511469    62.067089    -13.881655    -13.573113    52.137810    -9.134501    -9.123967    28.136423    12.636209    -11.248773    -17.161402    -8.419880    29.787575    -28.453300    1.893381    -19.452148    37.184322    0.000000    0.000000    0.000000    -15.002208    -15.368635    10.397334    6.809191    20.493952    -2.082498    2.517253    -2.257638    -18.936354    0.000000    0.000000    0.000000    
2.589224    157.965057    -102.086655    0.984831    -3.140861    52.158199    -1.665057    -1.064685    -0.350918    -5.783917    3.693782    0.075827    10.484196    -2.617877    -8.360775    8.504462    4.606135    -9.649681    8.294457    5.558779    -21.190815    -27.681089    21.263100    -59.354652    -16.468500    0.873608    -94.001129    16.006613    -17.694448    -6.590384    -13.656775    -4.891785    -2.989197    25.584492    -22.526733    62.075962    -13.867548    -13.483723    52.123798    -9.170912    -9.049951    28.119633    12.571628    -11.177040    -17.046648    -8.472698    29.773056    -28.423201    2.053104    -19.419991    37.329109    0.000000    0.000000    0.000000    -15.120268    -15.354536    10.024947    6.807468    20.264561    -2.312387    2.252718    -2.126259    -19.076973    0.000000    0.000000    0.000000    
2.707358    157.989517    -102.310272    1.008581    -3.132465    51.851852    -1.689647    -1.054391    -0.299730    -5.800822    3.662378    0.091786    10.533335    -2.676531    -8.292906    8.396122    4.691538    -9.610106    8.302658    5.533057    -21.144566    -27.686371    21.239542    -59.556381    -15.527332    1.129391    -93.732819    16.392012    -16.213160    -5.329593    -13.627045    -4.881483    -3.004276    25.478607    -22.493164    62.116516    -13.929391    -13.597168    52.097427    -9.151613    -9.129919    28.071678    12.495136    -11.072070    -16.957024    -8.528730    29.756910    -28.390705    2.225487    -19.397243    37.488037    0.000000    0.000000    0.000000    -15.241410    -15.320409    9.688540    6.795366    20.058056    -2.554671    2.027042    -1.977366    -19.215464    0.000000    0.000000    0.000000    
2.819042    158.004730    -102.534256    1.033396    -3.111170    51.549545    -1.705881    -1.068361    -0.267004    -5.829777    3.659531    0.103301    10.525935    -2.776680    -8.209552    8.345577    4.830966    -9.546417    8.257939    5.513039    -21.081871    -27.615675    21.254951    -59.560314    -15.521555    1.089537    -93.783676    16.425325    -16.261890    -5.334501    -13.715137    -4.924231    -2.994406    25.591240    -22.506277    62.157505    -13.910176    -13.542748    52.119209    -9.160933    -9.084322    28.086325    12.411635    -10.979464    -16.862877    -8.593383    29.740658    -28.310923    2.398783    -19.385843    37.596123    0.000000    0.000000    0.000000    -15.381174    -15.375664    8.470372    6.478768    20.117973    -1.844137    1.845890    -1.867377    -19.288879    0.000000    0.000000    0.000000    
2.925193    158.006973    -102.744034    1.062455    -3.087594    51.240616    -1.761884    -1.056627    -0.205039    -5.812356    3.600976    0.120321    10.440786    -2.749312    -8.170661    8.429935    4.842678    -9.480816    8.214169    5.494641    -21.084259    -27.653294    21.242247    -59.470654    -15.934279    0.972884    -93.867485    16.191143    -16.854151    -5.525346    -13.750965    -4.869844    -2.986740    25.557587    -22.527781    62.184570    -13.952229    -13.588271    52.099476    -9.188389    -9.122433    28.119759    12.337914    -10.884715    -16.760700    -8.675176    29.727425    -28.231544    2.590946    -19.380171    37.708572    0.000000    0.000000    0.000000    -15.499743    -15.330862    8.466566    6.529898    19.836391    -2.463050    1.667911    -1.746209    -19.358362    0.000000    0.000000    0.000000    
3.034819    158.010193    -102.937767    1.100424    -3.093174    50.941399    -1.788672    -1.066926    -0.182255    -5.856569    3.626429    0.131202    10.570032    -2.787187    -8.061811    8.274135    4.876179    -9.411265    8.244276    5.431617    -21.027126    -27.714088    21.236113    -59.452816    -15.903183    1.013754    -93.843201    16.144295    -16.784048    -5.609551    -13.717942    -4.931863    -2.945526    25.518574    -22.510677    62.189507    -13.965699    -13.638238    52.095627    -9.153476    -9.153776    28.064766    12.277635    -10.766386    -16.638453    -8.727057    29.731274    -28.175583    2.813711    -19.378317    37.788479    0.000000    0.000000    0.000000    -15.616132    -15.288182    8.104718    6.491251    19.683355    -2.505290    1.428643    -1.656099    -19.564030    0.000000    0.000000    0.000000    
3.138696    158.011551    -103.138718    1.124598    -3.079202    50.653355    -1.789598    -1.064571    -0.125920    -5.906757    3.604274    0.149758    10.499725    -2.876278    -8.008385    8.333068    5.005624    -9.355072    8.217548    5.407087    -21.006445    -27.672846    21.218502    -59.453030    -15.859010    1.026649    -93.867455    16.081949    -16.726883    -5.595122    -13.790057    -4.921911    -3.008427    25.561731    -22.482763    62.246120    -14.029247    -13.649549    52.081615    -9.179142    -9.142628    28.066027    12.215150    -10.679979    -16.523491    -8.798085    29.728489    -28.103580    3.048285    -19.356756    37.864384    0.000000    0.000000    0.000000    -15.759961    -15.259554    7.941197    6.568384    19.460308    -2.790642    1.227396    -1.536224    -19.857008    0.000000    0.000000    0.000000    
3.235043    158.003845    -103.321037    1.156967    -3.077894    50.379539    -1.839081    -1.074812    -0.104177    -5.897709    3.602237    0.156783    10.556997    -2.820777    -7.939476    8.234264    4.949276    -9.293628    8.183821    5.379757    -20.982140    -27.697670    21.175936    -59.434296    -15.846036    1.096745    -93.832176    16.167189    -16.632233    -5.542028    -13.807121    -4.934266    -2.955947    25.495979    -22.461855    62.206230    -14.061391    -13.749556    52.089024    -9.121118    -9.215581    28.097153    12.164443    -10.583622    -16.400282    -8.856411    29.741020    -28.090405    3.297566    -19.368448    37.958527    0.000000    0.000000    0.000000    -15.887354    -15.230221    7.503967    6.509914    19.337015    -2.833861    1.010035    -1.469314    -19.968571    0.000000    0.000000    0.000000    
3.350844    157.997238    -103.497627    1.201030    -3.084505    50.120789    -1.837066    -1.080176    -0.088807    -5.964633    3.606979    0.163732    10.600694    -2.854800    -7.857909    8.168244    5.020239    -9.230930    8.168690    5.354162    -20.959454    -27.730318    21.119118    -59.448391    -15.762224    1.188582    -93.729362    17.241570    -16.454964    -5.399251    -13.815030    -4.892817    -2.978207    25.537237    -22.490309    62.296997    -14.085816    -13.734395    52.084343    -9.102670    -9.182729    28.077707    12.103255    -10.469927    -16.298450    -8.916251    29.759554    -28.016165    3.531794    -19.388866    37.986473    0.000000    0.000000    0.000000    -16.019871    -15.176925    6.947857    6.446918    19.216869    -2.864336    0.797470    -1.404435    -20.130285    0.000000    0.000000    0.000000    
3.457243    157.992722    -103.669418    1.235505    -3.074960    49.864861    -1.855478    -1.099602    -0.054849    -6.017411    3.614288    0.174349    10.560229    -2.874460    -7.802446    8.241920    5.070419    -9.164157    8.166347    5.347224    -20.932220    -27.691984    21.137716    -59.491337    -15.685648    1.128685    -93.712082    17.180368    -16.422178    -5.393515    -13.848929    -4.924007    -2.978493    25.563688    -22.490381    62.273338    -14.065187    -13.736795    52.143677    -9.120495    -9.191723    28.090475    12.041452    -10.375639    -16.178062    -8.968583    29.767853    -27.952723    3.718474    -19.418877    38.022213    0.000000    0.000000    0.000000    -16.151762    -15.138405    6.469450    6.409164    19.081293    -2.997710    0.469207    -1.304936    -20.249458    0.000000    0.000000    0.000000    
